<?xml version="1.0" encoding="utf-8"?>
<!-- Generator: Adobe Illustrator 18.0.0, SVG Export Plug-In . SVG Version: 6.00 Build 0)  -->
<!DOCTYPE svg PUBLIC "-//W3C//DTD SVG 1.1//EN" "http://www.w3.org/Graphics/SVG/1.1/DTD/svg11.dtd">
<svg version="1.1" id="artwork" xmlns="http://www.w3.org/2000/svg" xmlns:xlink="http://www.w3.org/1999/xlink" x="0px" y="0px"
	 viewBox="0 0 493 257.1" enable-background="new 0 0 493 257.1" xml:space="preserve">
<path fill="#FFFFFF" d="M0,58.9h76.6c36.8,0,44.7,20.8,44.7,35.1c0,14.1-6.9,21.7-17.2,27.4c12.5,4.3,24.3,14.3,24.3,34.9
	c0,28-24.3,42.5-49,42.5H0V58.9z M43.1,113.4h22.7c9,0,14.7-2.5,14.7-11.6c0-7.1-5.9-9.6-14.7-9.6H43.1V113.4z M43.1,165.5h25.3
	c9,0,16.8-2.5,16.8-13.3c0-8.2-4.9-12.7-15.1-12.7h-27V165.5z M140.4,58.9h72.1c38,0,51.3,27.8,51.3,47.8
	c0,33.9-22.7,49.8-54.9,49.8h-25.5v42.3h-43.1V58.9z M183.5,123.1h16.7c11.2,0,22.9-0.8,22.9-14.9c0-12.7-9.8-13.5-20.4-13.5h-19.2
	V123.1z M364.4,0c-71,0-128.6,57.6-128.6,128.6c0,71,57.6,128.6,128.6,128.6c71,0,128.6-57.6,128.6-128.6C493,57.6,435.4,0,364.4,0z
	 M416.2,153.3c0,27-16.1,47-60.9,47c-41.1,0-54.1-23.5-54.1-41.1c0-6.5,0.4-8.2,0.8-11.4h36.4c-0.4,6.7,0.6,12,3.7,15.7
	c2.9,3.7,7.8,5.9,14.7,5.9c10.8,0,20.6-5.7,20.6-17.2c0-10.4-9.8-12.1-18.2-12.1h-7.6l5.1-24.9h8.2c10.6,0,22.3-1.4,22.3-12.1
	c0-7.6-6.3-12.1-16.3-12.1c-11,0-19,6.3-20.6,17.2h-35.8c4.9-32.5,28-47.2,59.5-47.2c23.1,0,49.4,7.6,49.4,35.7
	c0,15.9-11.8,27.6-26.4,30v0.4C409,128.2,416.2,141,416.2,153.3z"/>
</svg>
